<?xml version="1.0" encoding="utf-8"?>
<!-- Generator: Adobe Illustrator 24.3.0, SVG Export Plug-In . SVG Version: 6.00 Build 0)  -->
<svg fill="white" version="1.1" id="Layer_1" xmlns="http://www.w3.org/2000/svg" xmlns:xlink="http://www.w3.org/1999/xlink" x="0px" y="0px"
	 viewBox="0 0 495.5 512" style="enable-background:new 0 0 495.5 512;" xml:space="preserve">
<g>
	<rect x="162.3" y="4.1" width="17.1" height="68.1"/>
	<rect y="165.7" width="68.1" height="17.1"/>
	<rect x="65.4" y="43.9" transform="matrix(0.7071 -0.7071 0.7071 0.7071 -33.4739 75.1297)" width="17.1" height="68.1"/>
	<rect x="232.3" y="69.4" transform="matrix(0.7071 -0.7071 0.7071 0.7071 22.8704 211.1557)" width="68.1" height="17.1"/>
	<path d="M422.9,224.4c-12.3-57.6-63.5-100.8-124.8-100.8c-18.7,0-36.4,4-52.3,11.2c-14.2-27.4-42.8-46.1-75.7-46.1
		c-47.2,0-85.4,38.2-85.4,85.4c0,21,7.7,40.2,20.3,55c-12.2,15.7-19.5,35.4-19.5,56.8c0,44.1,30.8,81,72,90.5v-17.7
		c-31.6-9.1-54.9-38.4-54.9-72.8c0-41.8,34-75.8,75.7-75.8c1.3,0,2.6,0.1,3.8,0.2l1.3,0.1l11.2,0.7l5.1-10
		c19-37.3,56.8-60.5,98.5-60.5c51.8,0,97.2,36.7,108,87.3l2.7,12.7l12.9,0.8c31.7,2,56.5,28.4,56.5,60.1c0,29.5-21.4,54.2-49.5,59.3
		v17.3c37.6-5.2,66.7-37.5,66.7-76.7C495.5,260.4,463.4,226.9,422.9,224.4z M184.4,193.5c-2.1-0.1-4.1-0.3-6.2-0.3
		c-23.6,0-45.1,8.9-61.5,23.4c-9.3-11.7-15-26.4-15-42.5c0-37.7,30.7-68.3,68.3-68.3c26.4,0,49.2,15.1,60.6,37.1
		C211,155.2,195,172.7,184.4,193.5z"/>
	<polygon points="296.4,408 237.7,324.1 223.7,333.9 282.5,417.8 292,431.4 321.6,473.8 335.6,464 306,421.6 	"/>
	<polygon points="433.1,408 374.4,324.1 360.4,333.9 419.2,417.8 428.7,431.4 458.3,473.8 472.3,464 442.7,421.6 	"/>
	<polygon points="364.8,408 306,324.1 292,333.9 350.8,417.8 359.4,430.1 390,473.8 404,464 373.4,420.3 	"/>
	<polygon points="228.1,408 169.3,324.1 155.3,333.9 214.1,417.8 224.2,432.3 253.3,473.8 267.3,464 238.2,422.5 	"/>
</g>
</svg>
