<?xml version="1.0" encoding="utf-8"?>
<!-- Generator: Adobe Illustrator 24.3.0, SVG Export Plug-In . SVG Version: 6.00 Build 0)  -->
<svg fill="white" version="1.1" id="Layer_1" xmlns="http://www.w3.org/2000/svg" xmlns:xlink="http://www.w3.org/1999/xlink" x="0px" y="0px"
	 viewBox="0 0 452.7 512" style="enable-background:new 0 0 452.7 512;" xml:space="preserve">
<path d="M234.9,131.8c58,0,108.9,41.1,121.1,97.8l2.7,12.7l12.9,0.8c35.9,2.2,64,32.1,64,68.1c0,37.6-30.5,68.1-68,68.3
	c-0.4,0-0.8,0-1.2-0.1l-17.5-0.3v0.4H107l-4.9,0c-46.9-0.2-85-38.5-85-85.4c0-47.1,38.3-85.4,85.4-85.4c1.5,0,3,0.1,4.4,0.2l1.3,0.1
	l11.2,0.7l5.1-10C145.9,157.8,188.1,131.8,234.9,131.8 M234.9,114.7c-54.9,0-102.3,31.4-125.6,77.2c-2.3-0.2-4.5-0.3-6.8-0.3
	C45.9,191.6,0,237.5,0,294.1c0,56.4,45.6,102.2,102,102.5v0h264.2v-0.1c0.4,0,0.8,0.1,1.2,0.1c47.2,0,85.4-38.2,85.4-85.4
	c0-45.4-35.4-82.4-80.1-85.1C359,162.4,302.6,114.7,234.9,114.7L234.9,114.7z"/>
<rect x="80" y="418" width="300.2" height="17"/>
<rect x="111.3" y="456.4" width="237.6" height="17"/>
</svg>
