<?xml version="1.0" encoding="utf-8"?>
<!-- Generator: Adobe Illustrator 24.3.0, SVG Export Plug-In . SVG Version: 6.00 Build 0)  -->
<svg fill="white" version="1.1" id="Layer_1" xmlns="http://www.w3.org/2000/svg" xmlns:xlink="http://www.w3.org/1999/xlink" x="0px" y="0px"
	 height="512px" viewBox="0 0 495.5 512" style="enable-background:new 0 0 495.5 512;" xml:space="preserve">
<g>
	<rect x="162.3" y="4.1" width="17.1" height="68.1"/>
	<rect y="165.7" width="68.1" height="17.1"/>
	<rect x="65.4" y="43.9" transform="matrix(0.7071 -0.7071 0.7071 0.7071 -33.4558 75.143)" width="17.1" height="68.1"/>
	<rect x="232.3" y="69.4" transform="matrix(0.7071 -0.7071 0.7071 0.7071 22.8682 211.1885)" width="68.1" height="17.1"/>
	<path d="M422.9,224.4c-12.3-57.6-63.5-100.8-124.8-100.8c-18.7,0-36.4,4-52.3,11.2c-14.2-27.4-42.8-46.1-75.7-46.1
		c-47.2,0-85.4,38.2-85.4,85.4c0,21,7.7,40.2,20.3,55c-12.2,15.7-19.5,35.4-19.5,56.8c0,51.1,41.3,92.6,92.4,92.8v0h3.1v-17.1l-3,0
		c-41.5-0.2-75.4-34.2-75.4-75.7c0-41.8,34-75.8,75.7-75.8c1.3,0,2.6,0.1,3.8,0.2l1.3,0.1l11.2,0.7l5.1-10
		c19-37.3,56.8-60.5,98.5-60.5c51.8,0,97.2,36.7,108,87.3l2.7,12.7l12.9,0.8c31.7,2,56.5,28.4,56.5,60.1c0,33.1-26.9,60.1-59.9,60.3
		c-0.4,0-0.7,0-1,0l-17.5,0h-7v17.1H417v0c0.4,0,0.7,0,1.1,0c42.7,0,77.4-34.6,77.4-77.4C495.5,260.4,463.4,226.9,422.9,224.4z
		 M184.4,193.5c-2.1-0.1-4.1-0.3-6.2-0.3c-23.6,0-45.1,8.9-61.5,23.4c-9.3-11.7-15-26.4-15-42.5c0-37.7,30.7-68.3,68.3-68.3
		c26.4,0,49.2,15.1,60.6,37.1C211,155.2,195,172.7,184.4,193.5z"/>
	<polygon points="320.7,408.6 261.9,324.6 247.9,334.4 306.7,418.4 316.2,432 345.9,474.4 359.9,464.6 330.2,422.2 	"/>
	<polygon points="389.1,408.6 330.3,324.6 316.3,334.4 375.1,418.4 383.7,430.6 414.3,474.3 428.3,464.6 397.7,420.8 	"/>
	<polygon points="252.4,408.6 193.6,324.6 179.6,334.4 238.4,418.4 248.5,432.9 277.6,474.4 291.6,464.6 262.5,423 	"/>
</g>
</svg>
