<?xml version="1.0" encoding="utf-8"?>
<!-- Generator: Adobe Illustrator 24.3.0, SVG Export Plug-In . SVG Version: 6.00 Build 0)  -->
<svg fill="white" version="1.1" id="Layer_1" xmlns="http://www.w3.org/2000/svg" xmlns:xlink="http://www.w3.org/1999/xlink" x="0px" y="0px"
	 height="512px" viewBox="0 0 452.7 512" style="enable-background:new 0 0 452.7 512;" xml:space="preserve">
<g>
	<path d="M372.7,161.9C359,98.3,302.6,50.6,234.9,50.6c-54.9,0-102.3,31.4-125.6,77.2c-2.3-0.2-4.5-0.3-6.8-0.3
		C45.9,127.4,0,173.3,0,229.9c0,56.4,45.6,102.2,102,102.5v0h17.6v-17.1h-13.7l-3.8,0c-46.9-0.2-85-38.5-85-85.4
		c0-47.1,38.3-85.4,85.4-85.4c1.5,0,3,0.1,4.4,0.2l1.3,0.1l11.2,0.8l5.1-10c21.3-41.9,63.6-67.8,110.4-67.8
		c58,0,108.9,41.1,121.1,97.8l2.7,12.7l12.9,0.8c35.9,2.2,64,32.1,64,68.1c0,37.6-30.5,68.1-68,68.3c-0.4,0-0.8,0-1.2-0.1l-17.5,0.1
		h-24.5v17.1h41.5v-0.1c0.4,0,0.8,0.1,1.2,0.1c47.2,0,85.4-38.2,85.4-85.4C452.7,201.6,417.3,164.6,372.7,161.9z"/>
	<polygon points="213.6,392.5 213.6,409 213.6,460.8 230.6,460.8 230.6,409 230.6,392.5 230.6,289.9 213.6,289.9 	"/>
	<polygon points="281.9,358.3 281.9,373.3 281.9,426.6 299,426.6 299,373.3 299,358.3 299,255.8 281.9,255.8 	"/>
	<polygon points="145.2,358.3 145.2,375.9 145.2,426.6 162.3,426.6 162.3,375.9 162.3,358.3 162.3,255.8 145.2,255.8 	"/>
</g>
<polygon points="360.9,416.6 360.9,394.2 379.5,404.6 385.3,394.2 364.2,382.4 385.3,370.5 379.5,360.1 360.9,370.5 360.9,348.4 
	343.8,348.4 343.8,370.9 324.6,360.1 318.7,370.5 339.8,382.4 318.7,394.2 324.6,404.6 343.8,393.9 343.8,416.6 "/>
</svg>
