<?xml version="1.0" encoding="utf-8"?>
<!-- Generator: Adobe Illustrator 24.3.0, SVG Export Plug-In . SVG Version: 6.00 Build 0)  -->
<svg fill="white" version="1.1" id="Layer_1" xmlns="http://www.w3.org/2000/svg" xmlns:xlink="http://www.w3.org/1999/xlink" x="0px" y="0px"
	 viewBox="0 0 495.5 512" style="enable-background:new 0 0 495.5 512;" xml:space="preserve">
<g>
	<rect x="162.3" y="21.3" width="17.1" height="68.1"/>
	<rect y="182.9" width="68.1" height="17.1"/>
	<rect x="65.4" y="61.1" transform="matrix(0.7071 -0.7071 0.7071 0.7071 -45.6188 80.1813)" width="17.1" height="68.1"/>
	<rect x="232.3" y="86.6" transform="matrix(0.7071 -0.7071 0.7071 0.7071 10.7085 216.2293)" width="68.1" height="17.1"/>
	<path d="M422.9,241.6c-12.3-57.6-63.5-100.8-124.8-100.8c-18.7,0-36.4,4-52.3,11.2c-14.2-27.4-42.8-46.1-75.7-46.1
		c-47.2,0-85.4,38.2-85.4,85.4c0,21,7.7,40.2,20.3,55c-12.2,15.7-19.5,35.4-19.5,56.8c0,51.1,41.3,92.6,92.4,92.8v0h1.6V379l-1.5,0
		c-41.6-0.2-75.4-34.2-75.4-75.7c0-41.8,34-75.8,75.7-75.8c1.3,0,2.6,0.1,3.8,0.2l1.3,0.1l11.2,0.7l5.1-10
		c19-37.3,56.8-60.6,98.5-60.6c51.8,0,97.2,36.7,108.1,87.3l2.7,12.7l12.9,0.8c31.7,2,56.5,28.4,56.5,60.1
		c0,33.1-26.9,60.1-59.9,60.3c-0.4,0-0.7,0-1,0l-7.4,0v17.1h7v0c0.4,0,0.7,0,1.1,0c42.7,0,77.4-34.6,77.4-77.4
		C495.5,277.6,463.4,244.1,422.9,241.6z M184.4,210.7c-2.1-0.1-4.1-0.3-6.2-0.3c-23.6,0-45.1,8.9-61.5,23.4
		c-9.3-11.7-15-26.4-15-42.5c0-37.7,30.7-68.3,68.3-68.3c26.4,0,49.2,15.1,60.6,37.1C211.1,172.4,195,189.9,184.4,210.7z"/>
	<polygon points="306.1,421.7 321.2,421.7 324.9,421.7 342,421.7 287.2,343.5 273.2,353.3 309.2,404.6 294.1,404.6 273.2,404.6 
		284.1,420.1 293.6,433.7 333,490.1 347,480.3 307.6,423.9 	"/>
	<polygon points="233.9,416.8 233.9,394.4 252.5,404.8 258.3,394.4 237.2,382.5 258.3,370.6 252.5,360.2 233.9,370.6 233.9,348.5 
		216.8,348.5 216.8,371 197.6,360.2 191.7,370.6 212.8,382.5 191.7,394.4 197.6,404.8 216.8,394 216.8,416.8 	"/>
	<polygon points="404.9,485.1 404.9,462.7 423.5,473.1 429.3,462.7 408.2,450.8 429.3,438.9 423.5,428.5 404.9,438.9 404.9,416.8 
		387.8,416.8 387.8,439.3 368.6,428.5 362.7,438.9 383.8,450.8 362.7,462.7 368.6,473.1 387.8,462.3 387.8,485.1 	"/>
</g>
</svg>
