<?xml version="1.0" encoding="utf-8"?>
<!-- Generator: Adobe Illustrator 24.3.0, SVG Export Plug-In . SVG Version: 6.00 Build 0)  -->
<svg version="1.1" id="Layer_1" xmlns="http://www.w3.org/2000/svg" xmlns:xlink="http://www.w3.org/1999/xlink" x="0px" y="0px"
	 viewBox="0 0 495.5 512" style="enable-background:new 0 0 495.5 512;" xml:space="preserve">
<g>
	<path d="M273.4,336.8H107l-4.9,0c-46.9-0.2-85-38.6-85-85.4c0-47.1,38.3-85.4,85.4-85.4c1.5,0,3,0.1,4.4,0.2l1.3,0.1l11.2,0.8
		l5.1-10c21.3-41.9,63.6-67.8,110.4-67.8c58,0,108.9,41.1,121.1,97.8l2.7,12.7l12.9,0.8c15.6,1,29.6,7.2,40.5,16.8h23.3
		c-14.6-19.3-37.1-32.3-62.8-33.9C359,119.7,302.6,72,234.9,72c-54.9,0-102.3,31.4-125.6,77.2c-2.3-0.1-4.5-0.3-6.8-0.3
		C45.9,148.9,0,194.8,0,251.4c0,56.4,45.6,102.2,102,102.5v0h171.4c18.8,0,34.2,15.3,34.2,34.2s-15.3,34.2-34.2,34.2v17.1
		c28.3,0,51.3-22.9,51.3-51.3C324.6,359.8,301.7,336.8,273.4,336.8z"/>
	<path d="M307.5,302.6H170.9v17.1h136.6c28.3,0,51.3-22.9,51.3-51.3c0-28.3-22.9-51.3-51.3-51.3v17.1c18.8,0,34.2,15.3,34.2,34.2
		C341.7,287.3,326.4,302.6,307.5,302.6z"/>
	<path d="M418.6,251.4c14.1,0,25.6,11.5,25.6,25.6c0,14.1-11.5,25.6-25.6,25.6c-0.4,0-0.7-0.1-1.1-0.1H376c0,0,0.1,0.1,0.1,0.1h-0.2
		v17.1h47v-0.4c21.6-2.2,38.4-20.1,38.4-42.3c0-23.6-19.1-42.7-42.7-42.7L418.6,251.4L418.6,251.4z"/>
	<rect x="119.6" y="302.6" width="34.2" height="17.1"/>
</g>
<polygon points="394.2,407.5 394.2,385.1 412.7,395.5 418.6,385.1 397.5,373.2 418.6,361.4 412.7,350.9 394.2,361.4 394.2,339.2 
	377.1,339.2 377.1,361.8 357.8,350.9 352,361.4 373.1,373.2 352,385.1 357.8,395.5 377.1,384.7 377.1,407.5 "/>
<polygon points="226.6,432.5 226.6,410 245.2,420.4 251,410 229.9,398.1 251,386.3 245.2,375.8 226.6,386.3 226.6,364.1 
	209.5,364.1 209.5,386.7 190.3,375.8 184.5,386.3 205.6,398.1 184.5,410 190.3,420.4 209.5,409.6 209.5,432.5 "/>
</svg>
