<?xml version="1.0" encoding="utf-8"?>
<!-- Generator: Adobe Illustrator 24.3.0, SVG Export Plug-In . SVG Version: 6.00 Build 0)  -->
<svg version="1.1" id="Layer_1" xmlns="http://www.w3.org/2000/svg" xmlns:xlink="http://www.w3.org/1999/xlink" x="0px" y="0px"
	 viewBox="0 0 427.1 512" style="enable-background:new 0 0 427.1 512;" xml:space="preserve">
<g>
	<path d="M354.6,216.3c-12.3-57.6-63.5-100.8-124.8-100.8c-15.4,0-30.1,2.7-43.7,7.7C178,79.6,140,46.5,94,46.5
		c-3.5,0-7,0.2-10.4,0.6c6.4,9.5,10.1,20.9,10.1,33.2c0,33-26.8,59.8-59.8,59.8c-12.3,0-23.7-3.7-33.2-10.1C0.2,133.5,0,137,0,140.5
		c0,31.7,15.8,59.7,39.8,76.7c-14.1,16.3-22.7,37.5-22.7,60.7c0,51.1,41.3,92.6,92.4,92.8v0h1.6v-17.1l-1.5,0
		C68,353.5,34.2,319.5,34.2,278c0-41.8,34-75.8,75.7-75.8c1.3,0,2.6,0.1,3.8,0.2l1.3,0.1l11.2,0.7l5.1-10
		c19-37.3,56.8-60.6,98.5-60.6c51.8,0,97.2,36.7,108.1,87.3l2.7,12.7l12.9,0.8c31.7,2,56.5,28.4,56.5,60.1
		c0,33.1-26.9,60.1-59.9,60.3c-0.4,0-0.7,0-1,0l-7.4,0v17.1h7v0c0.4,0,0.7,0,1.1,0c42.7,0,77.4-34.6,77.4-77.4
		C427.1,252.4,395,218.9,354.6,216.3z M116.1,185.4c-2.1-0.1-4.1-0.3-6.2-0.3c-21.7,0-41.6,7.5-57.4,19.9
		c-17.2-11.1-29.8-28.6-34-49.3c5,1,10.1,1.5,15.2,1.5c42.4,0,76.9-34.5,76.9-76.9c0-5.1-0.5-10.2-1.5-15.2
		c31.9,6.4,56.6,32.7,60.9,65.3C146.9,142.7,128,162,116.1,185.4z"/>
	<polygon points="237.7,396.5 252.8,396.5 256.5,396.5 273.7,396.5 218.9,318.2 204.9,328 240.9,379.4 225.7,379.4 204.9,379.4 
		215.8,394.9 225.3,408.5 264.7,464.8 278.7,455 239.3,398.7 	"/>
</g>
<polygon points="168.9,391.5 168.9,369.1 187.5,379.5 193.3,369.1 172.2,357.2 193.3,345.3 187.5,334.9 168.9,345.3 168.9,323.2 
	151.8,323.2 151.8,345.7 132.6,334.9 126.7,345.3 147.8,357.2 126.7,369.1 132.6,379.5 151.8,368.7 151.8,391.5 "/>
<polygon points="332.9,459.8 332.9,437.4 351.5,447.8 357.3,437.4 336.2,425.5 357.3,413.6 351.5,403.2 332.9,413.6 332.9,391.5 
	315.8,391.5 315.8,414 296.6,403.2 290.7,413.6 311.8,425.5 290.7,437.4 296.6,447.8 315.8,437 315.8,459.8 "/>
</svg>
