<?xml version="1.0" encoding="utf-8"?>
<!-- Generator: Adobe Illustrator 24.3.0, SVG Export Plug-In . SVG Version: 6.00 Build 0)  -->
<svg fill="white" version="1.1" id="Layer_1" xmlns="http://www.w3.org/2000/svg" xmlns:xlink="http://www.w3.org/1999/xlink" x="0px" y="0px"
	 height="512px" viewBox="0 0 452.7 512" style="enable-background:new 0 0 452.7 512;" xml:space="preserve">
<g>
	<rect x="213.6" y="311.3" width="17.1" height="59.8"/>
	<rect x="281.9" y="277.1" width="17.1" height="59.8"/>
	<rect x="145.2" y="277.1" width="17.1" height="59.8"/>
	<rect x="213.6" y="396.7" width="17.1" height="59.8"/>
	<rect x="281.9" y="362.5" width="17.1" height="59.8"/>
	<rect x="145.2" y="362.5" width="17.1" height="59.8"/>
	<path d="M372.7,166.1C359,102.5,302.6,54.8,234.9,54.8c-54.9,0-102.3,31.4-125.6,77.2c-2.3-0.1-4.5-0.3-6.8-0.3
		C45.9,131.7,0,177.6,0,234.2c0,56.4,45.6,102.2,102,102.5v0h17.6v-17.1h-13.7l-3.8,0c-46.9-0.2-85-38.5-85-85.4
		c0-47.1,38.3-85.4,85.4-85.4c1.5,0,3,0.1,4.4,0.2l1.3,0.1l11.2,0.8l5.1-10c21.3-41.9,63.6-67.8,110.4-67.8
		c58,0,108.9,41.1,121.1,97.8l2.7,12.7l12.9,0.8c35.9,2.2,64,32.1,64,68.1c0,37.6-30.5,68.1-68,68.3c-0.4,0-0.8,0-1.2-0.1l-17.5,0.1
		h-24.5v17.1h41.5v-0.1c0.4,0,0.8,0.1,1.2,0.1c47.2,0,85.4-38.2,85.4-85.4C452.7,205.9,417.3,168.9,372.7,166.1z"/>
</g>
<polygon points="364.7,422.3 364.7,399.9 383.3,410.3 389.1,399.9 368,388 389.1,376.1 383.3,365.7 364.7,376.1 364.7,354 
	347.6,354 347.6,376.5 328.4,365.7 322.5,376.1 343.6,388 322.5,399.9 328.4,410.3 347.6,399.5 347.6,422.3 "/>
</svg>
