<?xml version="1.0" encoding="utf-8"?>
<!-- Generator: Adobe Illustrator 24.3.0, SVG Export Plug-In . SVG Version: 6.00 Build 0)  -->
<svg fill="white" version="1.1" id="Layer_1" xmlns="http://www.w3.org/2000/svg" xmlns:xlink="http://www.w3.org/1999/xlink" x="0px" y="0px"
	 height="512px"viewBox="0 0 452.7 512" style="enable-background:new 0 0 452.7 512;" xml:space="preserve">
<g>
	<polygon points="277.8,379.4 219,295.4 205,305.2 263.8,389.2 273.3,402.8 303,445.2 317,435.4 287.3,393 	"/>
	<polygon points="346.2,379.4 287.3,295.4 273.4,305.2 332.2,389.2 340.8,401.5 371.4,445.1 385.4,435.4 354.8,391.6 	"/>
	<polygon points="209.5,379.4 150.7,295.4 136.7,305.2 195.5,389.2 205.6,403.7 234.7,445.2 248.7,435.4 219.6,393.9 	"/>
	<path d="M372.7,177.5C359,113.9,302.6,66.2,234.9,66.2c-54.9,0-102.3,31.4-125.6,77.2c-2.3-0.1-4.5-0.3-6.8-0.3
		C45.9,143,0,188.9,0,245.5C0,301.9,45.6,347.7,102,348v0h17.6v-17.1h-13.7l-3.8,0c-46.9-0.2-85-38.5-85-85.4
		c0-47.1,38.3-85.4,85.4-85.4c1.5,0,3,0.1,4.4,0.2l1.3,0.1l11.2,0.8l5.1-10c21.3-41.9,63.6-67.8,110.4-67.8
		c58,0,108.9,41.1,121.1,97.8l2.7,12.7l12.9,0.8c35.9,2.2,64,32.1,64,68.1c0,37.6-30.5,68.1-68,68.3c-0.4,0-0.8,0-1.2-0.1l-8.9,0.1
		h1.2V348h7.4V348c0.4,0,0.8,0.1,1.2,0.1c47.2,0,85.4-38.2,85.4-85.4C452.7,217.2,417.3,180.2,372.7,177.5z"/>
</g>
<polygon points="112.3,434.9 112.3,412.5 130.9,422.9 136.7,412.5 115.6,400.6 136.7,388.7 130.9,378.3 112.3,388.7 112.3,366.6 
	95.2,366.6 95.2,389.1 76,378.3 70.1,388.7 91.2,400.6 70.1,412.5 76,422.9 95.2,412.1 95.2,434.9 "/>
</svg>
