<?xml version="1.0" encoding="utf-8"?>
<!-- Generator: Adobe Illustrator 24.3.0, SVG Export Plug-In . SVG Version: 6.00 Build 0)  -->
<svg fill="white" version="1.1" id="Layer_1" xmlns="http://www.w3.org/2000/svg" xmlns:xlink="http://www.w3.org/1999/xlink" x="0px" y="0px"
	 height="512px" viewBox="0 0 452.7 512" style="enable-background:new 0 0 452.7 512;" xml:space="preserve">
<path d="M372.7,226c-13.6-63.6-70.1-111.3-137.8-111.3c-54.9,0-102.3,31.4-125.6,77.2c-2.3-0.1-4.5-0.3-6.8-0.3
	C45.9,191.6,0,237.5,0,294.1c0,56.4,45.6,102.2,102,102.5v0h28.1c-2-5.4-3.3-11.1-3.6-17.1H107l-4.9,0c-46.8-0.2-85-38.5-85-85.4
	c0-47.1,38.3-85.4,85.4-85.4c1.5,0,3,0.1,4.4,0.2l1.3,0.1l11.2,0.7l5.1-10c21.3-41.9,63.6-67.8,110.4-67.8c58,0,108.9,41.1,121,97.8
	l2.7,12.7l12.9,0.8c35.9,2.2,64,32.1,64,68.1c0,20-8.7,38.1-22.5,50.6c-2.9,2.6-6,5-9.4,7.1c2.4,5.4,3.9,11.3,4.1,17.5
	c3.8-2.1,7.5-4.4,10.9-7c20.6-15.6,34-40.3,34-68.2C452.7,265.8,417.3,228.8,372.7,226z"/>
<path d="M418.8,379.4c-0.9-6.2-2.9-12.1-5.6-17.6c-9-17.6-26.8-30-47.6-31.3c-9.2-42.8-47.2-74.9-92.7-74.9
	c-36.9,0-68.8,21.1-84.5,51.9c-1.5-0.1-3.1-0.2-4.6-0.2c-38.1,0-69,30.9-69,69c0,1.1,0,2.1,0.1,3.2c0.3,5.9,1.3,11.6,3,17.1
	c8.6,28.1,34.7,48.5,65.6,48.7v0h177.7v0c0.3,0,0.5,0,0.8,0c31.7,0,57.5-25.7,57.5-57.5C419.4,384.9,419.2,382.1,418.8,379.4z
	 M362.2,433.8c-0.3,0-0.5,0-0.8,0l-11.7-0.2v0.2H186.8l-3.3,0c-24.4-0.1-45.2-15.6-53.4-37.2c-2-5.4-3.3-11.1-3.6-17.1
	c-0.1-1.1-0.1-2.1-0.1-3.2c0-31.7,25.8-57.5,57.5-57.5c1,0,2,0.1,3,0.1l0.9,0.1l7.6,0.5l3.4-6.8c14.3-28.1,42.8-45.6,74.2-45.6
	c39,0,73.2,27.7,81.4,65.8l1.8,8.5l8.7,0.5c17.5,1.1,32.2,11.9,39,26.9c2.4,5.4,3.9,11.3,4.1,17.5c0,0.5,0,1,0,1.4
	C407.9,413.1,387.4,433.6,362.2,433.8z"/>
</svg>
