<?xml version="1.0" encoding="utf-8"?>
<!-- Generator: Adobe Illustrator 24.3.0, SVG Export Plug-In . SVG Version: 6.00 Build 0)  -->
<svg version="1.1" id="Layer_1" xmlns="http://www.w3.org/2000/svg" xmlns:xlink="http://www.w3.org/1999/xlink" x="0px" y="0px"
	 viewBox="0 0 427.1 512" style="enable-background:new 0 0 427.1 512;" xml:space="preserve">
<g>
	<path d="M354.6,199.1c-12.3-57.6-63.5-100.8-124.8-100.8c-15.4,0-30.1,2.7-43.7,7.7C178,62.4,140,29.3,94,29.3
		c-3.5,0-7,0.2-10.4,0.6c6.3,9.5,10.1,20.9,10.1,33.2c0,33-26.8,59.8-59.8,59.8c-12.3,0-23.7-3.7-33.2-10.1
		c-0.4,3.4-0.6,6.9-0.6,10.4C0,155,15.8,183,39.8,200c-14.1,16.3-22.7,37.5-22.7,60.7c0,45.9,33.3,84.1,77.2,91.5v-17.4
		c-34.2-7.3-60-37.8-60-74c0-41.8,34-75.8,75.8-75.8c1.3,0,2.5,0.1,3.8,0.2l1.3,0.1l11.2,0.7l5.1-10c19-37.3,56.8-60.5,98.5-60.5
		c51.8,0,97.2,36.7,108,87.3l2.7,12.7l12.9,0.8c31.7,2,56.5,28.4,56.5,60.1c0,28.9-20.4,53.1-47.5,58.9v17.4
		c36.7-6,64.7-37.9,64.7-76.4C427.1,235.2,395,201.7,354.6,199.1z M116.1,168.2c-2.1-0.1-4.1-0.3-6.2-0.3
		c-21.7,0-41.6,7.5-57.4,19.9c-17.2-11-29.8-28.6-34-49.3c5,1,10.1,1.5,15.2,1.5c42.4,0,76.9-34.5,76.9-76.9
		c0-5.2-0.5-10.2-1.5-15.2c31.9,6.4,56.6,32.7,60.9,65.3C146.9,125.5,128,144.8,116.1,168.2z"/>
</g>
<polygon points="231.6,383.5 172.9,299.6 158.9,309.4 217.7,393.3 227.2,406.9 256.8,449.3 270.8,439.5 241.2,397.1 "/>
<polygon points="368.3,383.5 309.6,299.6 295.6,309.4 354.4,393.3 363.9,406.9 393.5,449.3 407.5,439.5 377.9,397.1 "/>
<polygon points="300,383.5 241.2,299.6 227.2,309.4 286,393.3 294.6,405.6 325.2,449.3 339.2,439.5 308.6,395.8 "/>
<polygon points="163.3,383.5 104.5,299.6 90.5,309.4 149.3,393.3 159.4,407.8 188.5,449.3 202.5,439.5 173.4,398 "/>
</svg>
