<?xml version="1.0" encoding="utf-8"?>
<!-- Generator: Adobe Illustrator 24.3.0, SVG Export Plug-In . SVG Version: 6.00 Build 0)  -->
<svg fill="white" version="1.1" id="Layer_1" xmlns="http://www.w3.org/2000/svg" xmlns:xlink="http://www.w3.org/1999/xlink" x="0px" y="0px"
	 height="512px" viewBox="0 0 452.7 512" style="enable-background:new 0 0 452.7 512;" xml:space="preserve">
<g>
	<path d="M372.7,179C359,115.4,302.6,67.7,234.9,67.7c-54.9,0-102.3,31.4-125.6,77.2c-2.3-0.1-4.5-0.3-6.8-0.3
		C45.9,144.6,0,190.5,0,247.1c0,56.4,45.6,102.2,102,102.5v0h9.1v-17.1h-5.2l-3.8,0c-46.9-0.2-85-38.5-85-85.4
		c0-47.1,38.3-85.4,85.4-85.4c1.5,0,3,0.1,4.4,0.2l1.3,0.1l11.2,0.8l5.1-10c21.3-41.9,63.6-67.8,110.4-67.8
		c58,0,108.9,41.1,121.1,97.8l2.7,12.7l12.9,0.8c35.9,2.2,64,32.1,64,68.1c0,37.6-30.5,68.1-68,68.3c-0.4,0-0.8,0-1.2-0.1l-7.7,0.1
		v17.1h7.4v-0.1c0.4,0,0.8,0.1,1.2,0.1c47.2,0,85.4-38.2,85.4-85.4C452.7,218.8,417.3,181.8,372.7,179z"/>
	<polygon points="246.4,375.3 261.5,375.3 265.2,375.3 282.3,375.3 227.5,297 213.6,306.8 249.5,358.2 234.4,358.2 213.6,358.2 
		224.4,373.7 233.9,387.3 273.4,443.6 287.4,433.8 247.9,377.5 	"/>
	<polygon points="168,376.6 168,354.2 186.6,364.6 192.4,354.2 171.3,342.3 192.4,330.4 186.6,320 168,330.4 168,308.3 150.9,308.3 
		150.9,330.8 131.7,320 125.8,330.4 146.9,342.3 125.8,354.2 131.7,364.6 150.9,353.8 150.9,376.6 	"/>
	<polygon points="348.9,438.6 348.9,416.2 367.5,426.6 373.3,416.2 352.2,404.3 373.3,392.4 367.5,382 348.9,392.4 348.9,370.3 
		331.8,370.3 331.8,392.8 312.6,382 306.7,392.4 327.8,404.3 306.7,416.2 312.6,426.6 331.8,415.8 331.8,438.6 	"/>
</g>
</svg>
